<svg width="45" height="41" viewBox="0 0 45 41" fill="none" xmlns="http://www.w3.org/2000/svg">
<path d="M44.4935 34.876C45.9356 37.3755 44.1255 40.5 41.2453 40.5H3.75424C0.868538 40.5 -0.933181 37.3707 0.506038 34.876L19.2518 2.37383C20.6946 -0.126875 24.3081 -0.122343 25.7482 2.37383L44.4935 34.876ZM22.5 28.1562C20.5153 28.1562 18.9063 29.7652 18.9063 31.75C18.9063 33.7348 20.5153 35.3438 22.5 35.3438C24.4848 35.3438 26.0938 33.7348 26.0938 31.75C26.0938 29.7652 24.4848 28.1562 22.5 28.1562ZM19.0881 15.2386L19.6676 25.8636C19.6947 26.3608 20.1058 26.75 20.6037 26.75H24.3964C24.8942 26.75 25.3053 26.3608 25.3324 25.8636L25.912 15.2386C25.9413 14.7016 25.5137 14.25 24.9759 14.25H20.0241C19.4863 14.25 19.0588 14.7016 19.0881 15.2386Z" fill="#CC6355"/>
</svg>
